<svg width="16" height="16" viewBox="0 0 16 16" fill="none" xmlns="http://www.w3.org/2000/svg">
<path d="M8.00001 1C9.55613 1.00002 11.0512 1.62798 12.1686 2.75093C13.286 3.87387 13.938 5.40364 13.9866 7.01635L13.9896 7.21042L13.9889 12.6088L13.9964 12.6888C14.0199 13.1011 13.9289 13.5117 13.7341 13.872C13.5392 14.2322 13.2488 14.5269 12.8973 14.7211L12.7752 14.7833C11.9868 15.152 11.0659 14.9758 10.4325 14.3229L10.33 14.2096C10.2844 14.1492 10.2263 14.1004 10.1599 14.0668C10.0934 14.0333 10.0205 14.0158 9.94663 14.0158C9.87275 14.0158 9.79983 14.0333 9.73341 14.0668C9.66699 14.1004 9.60882 14.1492 9.5633 14.2096C9.37773 14.4558 9.14051 14.6549 8.86964 14.7919C8.59877 14.9288 8.30137 15 8.00001 15C7.69865 15 7.40125 14.9288 7.13038 14.7919C6.85951 14.6549 6.62229 14.4558 6.43672 14.2096C6.39124 14.1492 6.33308 14.1003 6.26666 14.0667C6.20024 14.033 6.1273 14.0155 6.05339 14.0155C5.90365 14.0155 5.76215 14.0869 5.6416 14.2453C5.35487 14.582 4.97395 14.8175 4.55196 14.9191C4.12996 15.0206 3.68792 14.9831 3.28747 14.8118C2.88701 14.6405 2.54809 14.3438 2.31796 13.9633C2.08783 13.5827 1.97796 13.1372 2.00367 12.6888L2.00966 12.6181L2.01041 7.21042L2.0134 7.01635C2.06203 5.40364 2.71407 3.87387 3.83147 2.75093C4.94886 1.62798 6.44389 1.00002 8.00001 1ZM10.1113 9.09606C9.99798 8.92724 9.82462 8.81198 9.62935 8.77559C9.43409 8.7392 9.23287 8.78466 9.0699 8.90198C8.75598 9.12873 8.38259 9.25029 8.00001 9.25029C7.61743 9.25029 7.24404 9.12873 6.93012 8.90198C6.76709 8.78442 6.56571 8.73882 6.37026 8.77522C6.17481 8.81162 6.00131 8.92703 5.88793 9.09606C5.77454 9.26509 5.73057 9.47391 5.76567 9.67656C5.80077 9.87922 5.91208 10.0591 6.0751 10.1767C6.63998 10.5844 7.31174 10.803 8.00001 10.803C8.68828 10.803 9.36004 10.5844 9.92492 10.1767C10.0056 10.1185 10.0745 10.0443 10.1276 9.95853C10.1807 9.87272 10.217 9.77691 10.2344 9.67656C10.2517 9.57622 10.2499 9.47331 10.2289 9.3737C10.2079 9.2741 10.1675 9.17976 10.1113 9.09606ZM6.5101 5.65782L6.41501 5.66325C6.22552 5.68662 6.05178 5.78413 5.9293 5.93586C5.80682 6.08759 5.74484 6.28209 5.75603 6.47961C5.76721 6.67714 5.85071 6.86278 5.98947 6.99861C6.12824 7.13444 6.31178 7.2102 6.50261 7.21042L6.59769 7.20499C6.78719 7.18162 6.96092 7.0841 7.0834 6.93237C7.20588 6.78064 7.26786 6.58615 7.25668 6.38862C7.2455 6.1911 7.16199 6.00546 7.02323 5.86963C6.88447 5.7338 6.70093 5.65803 6.5101 5.65782ZM9.5049 5.65782L9.40981 5.66325C9.22032 5.68662 9.04659 5.78413 8.92411 5.93586C8.80163 6.08759 8.73965 6.28209 8.75083 6.47961C8.76201 6.67714 8.84552 6.86278 8.98428 6.99861C9.12304 7.13444 9.30658 7.2102 9.49741 7.21042L9.5925 7.20499C9.78199 7.18162 9.95572 7.0841 10.0782 6.93237C10.2007 6.78064 10.2627 6.58615 10.2515 6.38862C10.2403 6.1911 10.1568 6.00546 10.018 5.86963C9.87927 5.7338 9.69573 5.65803 9.5049 5.65782Z" fill="#E4E4E7"/>
<path d="M6.5101 5.65782L6.41501 5.66325C6.22552 5.68662 6.05178 5.78413 5.9293 5.93586C5.80682 6.08759 5.74484 6.28209 5.75603 6.47961C5.76721 6.67714 5.85071 6.86278 5.98947 6.99861C6.12824 7.13444 6.31178 7.2102 6.50261 7.21042L6.59769 7.20499C6.78719 7.18162 6.96092 7.0841 7.0834 6.93237C7.20588 6.78064 7.26786 6.58615 7.25668 6.38862C7.2455 6.1911 7.16199 6.00546 7.02323 5.86963C6.88447 5.7338 6.70093 5.65803 6.5101 5.65782Z" fill="#64748B"/>
<path d="M10.1113 9.09606C9.99798 8.92724 9.82462 8.81198 9.62935 8.77559C9.43409 8.7392 9.23287 8.78466 9.0699 8.90198C8.75598 9.12873 8.38259 9.25029 8.00001 9.25029C7.61743 9.25029 7.24404 9.12873 6.93012 8.90198C6.76709 8.78442 6.56571 8.73882 6.37026 8.77522C6.17481 8.81162 6.00131 8.92703 5.88793 9.09606C5.77454 9.26509 5.73057 9.47391 5.76567 9.67656C5.80077 9.87922 5.91208 10.0591 6.0751 10.1767C6.63998 10.5844 7.31174 10.803 8.00001 10.803C8.68828 10.803 9.36004 10.5844 9.92492 10.1767C10.0056 10.1185 10.0745 10.0443 10.1276 9.95853C10.1807 9.87272 10.217 9.77691 10.2344 9.67656C10.2517 9.57622 10.2499 9.47331 10.2289 9.3737C10.2079 9.2741 10.1675 9.17976 10.1113 9.09606Z" fill="#64748B"/>
<path d="M9.5049 5.65782L9.40981 5.66325C9.22032 5.68662 9.04659 5.78413 8.92411 5.93586C8.80163 6.08759 8.73965 6.28209 8.75083 6.47961C8.76201 6.67714 8.84552 6.86278 8.98428 6.99861C9.12304 7.13444 9.30658 7.2102 9.49741 7.21042L9.5925 7.20499C9.78199 7.18162 9.95572 7.0841 10.0782 6.93237C10.2007 6.78064 10.2627 6.58615 10.2515 6.38862C10.2403 6.1911 10.1568 6.00546 10.018 5.86963C9.87927 5.7338 9.69573 5.65803 9.5049 5.65782Z" fill="#64748B"/>
<path d="M8.00002 0.5H8C6.30818 0.50002 4.68637 1.18291 3.47704 2.39825C2.26827 3.61303 1.56601 5.26427 1.51363 7.00128L1.51357 7.00127L1.51346 7.00863L1.51047 7.20271L1.51041 7.2027L1.51041 7.21035L1.50966 12.597L1.50546 12.6465L1.50527 12.6465L1.50449 12.6602C1.47307 13.2083 1.60719 13.7541 1.89011 14.222C2.17315 14.6901 2.592 15.0581 3.09079 15.2715C3.58985 15.485 4.14188 15.532 4.66894 15.4052C5.19581 15.2784 5.66837 14.985 6.02228 14.5695C6.0282 14.5625 6.03393 14.5554 6.03946 14.5481C6.04452 14.5415 6.04913 14.5359 6.05323 14.5312C6.28173 14.828 6.57227 15.0699 6.90477 15.2381C7.24506 15.4101 7.61969 15.5 8.00001 15.5C8.38034 15.5 8.75496 15.4101 9.09525 15.2381C9.42784 15.0699 9.71845 14.8279 9.94698 14.531C9.95098 14.5358 9.95507 14.5405 9.95924 14.5451L10.0618 14.6584C10.0657 14.6627 10.0696 14.6669 10.0737 14.6711C10.8491 15.4704 11.9974 15.699 12.9871 15.2362L13.002 15.2289L13.124 15.1668L13.139 15.1588C13.5761 14.9174 13.9345 14.5525 14.1739 14.1098C14.4132 13.6673 14.5243 13.1643 14.4955 12.6603C14.4952 12.6542 14.4947 12.6482 14.4942 12.6422L14.4889 12.5855L14.4896 7.21049H14.4897L14.4896 7.20271L14.4866 7.00863L14.4866 7.00863L14.4864 7.00128C14.434 5.26427 13.7318 3.61303 12.523 2.39825C11.3136 1.18291 9.69184 0.50002 8.00002 0.5Z" stroke="#64748B" stroke-linecap="round" stroke-linejoin="round"/>
</svg>